<svg width="68" height="68" viewBox="0 0 68 68" fill="none" xmlns="http://www.w3.org/2000/svg">
<rect width="68" height="68" rx="20" fill="#0328EE"/>
<g clip-path="url(#clip0_22_6878)">
<path d="M59.4875 33.7437C59.4875 47.973 47.973 59.4875 33.7437 59.4875C19.5145 59.4875 8 47.973 8 33.7437C8 19.5145 19.5145 8 33.7437 8C36.7862 8 39.735 8.51487 42.4498 9.49782C52.3728 13.0551 59.4875 22.5569 59.4875 33.7437Z" fill="white" fill-opacity="0.4"/>
<path d="M58.9726 28.5483C57.1472 19.7019 50.7815 12.4936 42.4498 9.49798C42.403 9.49798 42.3562 9.45117 42.3562 9.45117L42.4498 14.4127C42.4498 15.6765 41.7009 16.8466 40.5308 17.3615C37.9564 18.4849 35.382 17.8764 34.3055 20.8252C33.4161 23.0251 35.7565 29.0632 38.6117 29.0632C42.2158 29.0632 43.9477 21.8082 45.0242 21.8082C45.7263 21.8082 46.8029 24.0081 48.0667 25.6463C48.9092 26.7697 50.2198 27.3782 51.624 27.3782H54.0111L58.9726 28.5483Z" fill="white"/>
<path d="M38.3308 39.3604C37.0202 41.1858 43.9008 46.7558 46.1943 45.6793C50.0793 43.8538 52.6068 40.0625 52.6068 38.6583C52.6068 37.254 50.7814 34.5393 44.5561 38.7519C42.8242 40.0156 39.6882 37.4881 38.3308 39.3604Z" fill="white"/>
<path d="M27.8929 34.2586C29.2503 32.9012 29.6715 30.7949 28.9694 29.5779C26.7227 25.5057 21.3867 27.6589 20.8719 31.9183C20.591 34.4927 19.0464 37.1138 17.7358 38.4712C16.4252 39.7818 13.8508 39.0797 13.1487 37.1606C12.353 35.0075 15.1146 34.2118 14.6934 31.4502C14.5998 30.7013 13.804 30.3268 12.8211 30.1864L8.18723 30.3737C8.09361 31.4502 8 32.5736 8 33.7437C8 46.0539 16.6125 56.3514 28.1737 58.879V54.2919C28.1737 54.2919 28.1737 54.2919 27.0036 53.1218C25.8334 51.9516 28.2205 49.9857 28.8758 47.5049C30.7013 40.4839 24.6164 40.2031 24.4292 38.6585C24.242 36.9266 26.5355 35.616 27.8929 34.2586Z" fill="white"/>
</g>
<defs>
<clipPath id="clip0_22_6878">
<rect width="52" height="52" fill="white" transform="translate(8 8)"/>
</clipPath>
</defs>
</svg>
