<svg width="68" height="68" viewBox="0 0 68 68" fill="none" xmlns="http://www.w3.org/2000/svg">
<rect width="68" height="68" rx="20" fill="#0328EE"/>
<g clip-path="url(#clip0_22_6897)">
<path d="M31.2599 50.8179C41.7081 50.8179 50.1782 42.2947 50.1782 31.7808C50.1782 21.2669 41.7081 12.7437 31.2599 12.7437C20.8116 12.7437 12.3416 21.2669 12.3416 31.7808C12.3416 42.2947 20.8116 50.8179 31.2599 50.8179Z" fill="white"/>
<path opacity="0.4" d="M53.4258 56.6452C52.6909 56.6214 51.9921 56.3191 51.4694 55.7987L46.9893 50.562C46.0288 49.6836 45.9502 48.1908 46.8132 47.2152C47.2171 46.8065 47.7663 46.5767 48.3392 46.5767C48.912 46.5767 49.4612 46.8065 49.8652 47.2152L55.4996 51.7235C56.3112 52.5542 56.5616 53.7874 56.139 54.8719C55.7163 55.9564 54.6996 56.6896 53.5432 56.7437L53.4258 56.6452Z" fill="white"/>
</g>
<defs>
<clipPath id="clip0_22_6897">
<rect width="45" height="45" fill="white" transform="translate(12 12)"/>
</clipPath>
</defs>
</svg>
