<svg width="68" height="68" viewBox="0 0 68 68" fill="none" xmlns="http://www.w3.org/2000/svg">
<rect width="68" height="68" rx="20" fill="#0328EE"/>
<g clip-path="url(#clip0_22_6853)">
<path d="M34.2334 40.1333C26.9127 40.1333 20.7358 41.3295 20.7358 45.9464C20.7358 50.5651 26.9526 51.7193 34.2334 51.7193C41.5541 51.7193 47.731 50.5231 47.731 45.9062C47.731 41.2875 41.5142 40.1333 34.2334 40.1333Z" fill="white"/>
<path opacity="0.4" d="M34.2334 35.7347C39.1905 35.7347 43.1653 31.737 43.1653 26.7514C43.1653 21.7638 39.1905 17.7681 34.2334 17.7681C29.2763 17.7681 25.3015 21.7638 25.3015 26.7514C25.3015 31.737 29.2763 35.7347 34.2334 35.7347Z" fill="white"/>
<path opacity="0.4" d="M53.6255 28.8433C54.908 23.7984 51.1479 19.2676 46.3599 19.2676C45.8393 19.2676 45.3415 19.3249 44.8551 19.4224C44.7905 19.4376 44.7183 19.4701 44.6803 19.5275C44.6366 19.6001 44.6689 19.6975 44.7164 19.7606C46.1547 21.79 46.9812 24.2609 46.9812 26.9132C46.9812 29.4548 46.2231 31.8243 44.8931 33.7907C44.7563 33.9933 44.8779 34.2665 45.1192 34.3086C45.4536 34.3678 45.7956 34.3984 46.1452 34.4079C49.6317 34.4997 52.761 32.2428 53.6255 28.8433Z" fill="white"/>
<path d="M57.2782 40.7214C56.6398 39.3531 55.0989 38.4149 52.7562 37.9543C51.6504 37.683 48.6579 37.3008 45.8744 37.3524C45.8326 37.3581 45.8098 37.3868 45.806 37.4059C45.8003 37.4326 45.8117 37.4785 45.8668 37.5072C47.1531 38.1473 52.1254 40.9316 51.5003 46.8039C51.4737 47.058 51.677 47.2778 51.9297 47.2396C53.1533 47.0638 56.3016 46.3835 57.2782 44.2642C57.8178 43.1444 57.8178 41.8431 57.2782 40.7214Z" fill="white"/>
<path opacity="0.4" d="M23.8269 19.4228C23.3424 19.3235 22.8427 19.2681 22.3221 19.2681C17.5342 19.2681 13.7741 23.7989 15.0585 28.8438C15.9211 32.2433 19.0504 34.5001 22.5368 34.4084C22.8864 34.3989 23.2303 34.3664 23.5628 34.3091C23.8041 34.267 23.9257 33.9937 23.7889 33.7912C22.4589 31.8229 21.7008 29.4553 21.7008 26.9137C21.7008 24.2594 22.5292 21.7886 23.9675 19.7611C24.0131 19.698 24.0473 19.6006 24.0017 19.5279C23.9637 19.4687 23.8934 19.4381 23.8269 19.4228Z" fill="white"/>
<path d="M15.9262 37.9532C13.5835 38.4138 12.0445 39.352 11.4061 40.7203C10.8646 41.842 10.8646 43.1433 11.4061 44.2651C12.3827 46.3824 15.531 47.0646 16.7546 47.2385C17.0073 47.2767 17.2087 47.0589 17.1821 46.8028C16.557 40.9324 21.5293 38.1482 22.8175 37.508C22.8707 37.4774 22.8821 37.4335 22.8764 37.4048C22.8726 37.3857 22.8517 37.357 22.8099 37.3532C20.0245 37.2997 17.0339 37.6819 15.9262 37.9532Z" fill="white"/>
</g>
<defs>
<clipPath id="clip0_22_6853">
<rect width="47" height="35" fill="white" transform="translate(11 17)"/>
</clipPath>
</defs>
</svg>
