<svg width="68" height="68" viewBox="0 0 68 68" fill="none" xmlns="http://www.w3.org/2000/svg">
<rect width="68" height="68" rx="20" fill="#0328EE"/>
<g clip-path="url(#clip0_2_929)">
<path opacity="0.4" d="M56.1314 33.7437C56.1314 46.1084 46.1084 56.1314 33.7437 56.1314C21.3789 56.1314 11.356 46.1084 11.356 33.7437C11.356 21.3812 21.3789 11.356 33.7437 11.356C46.1084 11.356 56.1314 21.3812 56.1314 33.7437Z" fill="white"/>
<path d="M42.3848 26.3668L38.758 37.8293C38.6237 38.2994 38.2431 38.68 37.7729 38.8166L26.3552 42.3964C25.594 42.6449 24.8552 41.9038 25.1015 41.1427L28.6835 29.6578C28.8179 29.1876 29.1984 28.8294 29.6686 28.6727L41.1311 25.0907C41.9147 24.8444 42.6311 25.5832 42.3848 26.3668Z" fill="white"/>
</g>
<defs>
<clipPath id="clip0_2_929">
<rect width="46" height="46" fill="white" transform="translate(11 11)"/>
</clipPath>
</defs>
</svg>
