<svg width="69" height="68" viewBox="0 0 69 68" fill="none" xmlns="http://www.w3.org/2000/svg">
<rect x="0.666504" width="68" height="68" rx="20" fill="#0328EE"/>
<g clip-path="url(#clip0_2_1630)">
<path opacity="0.4" d="M44.7526 13H24.9451C17.7269 13 13.6372 17.0897 13.6372 24.3078V44.0965C13.6372 51.3147 17.7269 55.4044 24.9451 55.4044H44.7526C51.9708 55.4044 56.0416 51.3147 56.0416 44.0965V24.3078C56.0416 17.0897 51.9708 13 44.7526 13Z" fill="white"/>
<path d="M25.0198 28.6238C24.0587 28.6238 23.2671 29.4153 23.2671 30.3953V44.9636C23.2671 45.9248 24.0587 46.7163 25.0198 46.7163C25.9999 46.7163 26.7914 45.9248 26.7914 44.9636V30.3953C26.7914 29.4153 25.9999 28.6238 25.0198 28.6238Z" fill="white"/>
<path d="M34.9148 21.6694C33.9536 21.6694 33.1621 22.461 33.1621 23.441V44.9636C33.1621 45.9247 33.9536 46.7163 34.9148 46.7163C35.8948 46.7163 36.6863 45.9247 36.6863 44.9636V23.441C36.6863 22.461 35.8948 21.6694 34.9148 21.6694Z" fill="white"/>
<path d="M44.6769 36.3132C43.6969 36.3132 42.9053 37.1048 42.9053 38.0848V44.9637C42.9053 45.9249 43.6969 46.7164 44.658 46.7164C45.638 46.7164 46.4296 45.9249 46.4296 44.9637V38.0848C46.4296 37.1048 45.638 36.3132 44.6769 36.3132Z" fill="white"/>
</g>
<defs>
<clipPath id="clip0_2_1630">
<rect width="44" height="43" fill="white" transform="translate(12.6665 13)"/>
</clipPath>
</defs>
</svg>
