<svg width="68" height="68" viewBox="0 0 68 68" fill="none" xmlns="http://www.w3.org/2000/svg">
<rect width="68" height="68" rx="20" fill="#0328EE"/>
<path opacity="0.4" d="M15.454 22.1418H39.8178C40.9449 22.1418 41.8597 23.0566 41.8597 24.1837C41.8597 25.3108 40.9449 26.2256 39.8178 26.2256H15.454C14.3269 26.2256 13.4121 25.3108 13.4121 24.1837C13.4121 23.0566 14.3269 22.1418 15.454 22.1418Z" fill="white"/>
<mask id="mask0_2_1613" style="mask-type:alpha" maskUnits="userSpaceOnUse" x="37" y="13" width="18" height="22">
<path fill-rule="evenodd" clip-rule="evenodd" d="M37 34.9889V13H54.5697V34.9889H37Z" fill="white"/>
</mask>
<g mask="url(#mask0_2_1613)">
<path d="M38.379 13.1877C38.6364 13.1877 38.8901 13.2594 39.1144 13.3991L53.706 22.5943C54.1068 22.848 54.3514 23.2875 54.3514 23.7618C54.3514 24.2362 54.1068 24.6757 53.706 24.9294L39.1144 34.1245C38.6897 34.3911 38.1528 34.4077 37.7134 34.1631C37.2721 33.9204 37 33.4589 37 32.957V14.5667C37 14.0647 37.2721 13.6032 37.7134 13.3605C37.9211 13.2447 38.151 13.1877 38.379 13.1877Z" fill="white"/>
</g>
<path opacity="0.4" d="M52.892 46.2627H28.5282C27.4011 46.2627 26.4863 45.348 26.4863 44.2208C26.4863 43.0937 27.4011 42.179 28.5282 42.179H52.892C54.0191 42.179 54.9339 43.0937 54.9339 44.2208C54.9339 45.348 54.0191 46.2627 52.892 46.2627Z" fill="white"/>
<mask id="mask1_2_1613" style="mask-type:alpha" maskUnits="userSpaceOnUse" x="13" y="32" width="18" height="23">
<path fill-rule="evenodd" clip-rule="evenodd" d="M30.5697 32.9937V54.9825H13V32.9937H30.5697Z" fill="white"/>
</mask>
<g mask="url(#mask1_2_1613)">
<path d="M29.1906 54.7948C28.9332 54.7948 28.6795 54.7231 28.4552 54.5834L13.8636 45.3882C13.4628 45.1345 13.2183 44.6951 13.2183 44.2207C13.2183 43.7463 13.4628 43.3069 13.8636 43.0532L28.4552 33.858C28.8799 33.5914 29.4168 33.5749 29.8562 33.8194C30.2975 34.0621 30.5696 34.5236 30.5696 35.0256V53.4158C30.5696 53.9178 30.2975 54.3793 29.8562 54.622C29.6485 54.7378 29.4186 54.7948 29.1906 54.7948Z" fill="white"/>
</g>
</svg>
