<svg width="69" height="68" viewBox="0 0 69 68" fill="none" xmlns="http://www.w3.org/2000/svg">
<rect x="0.333496" width="68" height="68" rx="20" fill="#0328EE"/>
<g clip-path="url(#clip0_2_1639)">
<path fill-rule="evenodd" clip-rule="evenodd" d="M57.4327 25.8889H47.7209C43.2014 25.8968 39.5401 29.4666 39.5319 33.8732C39.5258 38.2898 43.1912 41.8755 47.7209 41.8815H57.4409V42.5831C57.4409 50.2872 52.7705 54.8429 44.8669 54.8429H24.1487C16.2431 54.8429 11.5728 50.2872 11.5728 42.5831V25.8034C11.5728 18.0993 16.2431 13.5615 24.1487 13.5615H44.8587C52.7623 13.5615 57.4327 18.0993 57.4327 25.8034V25.8889ZM22.4425 25.8709H35.3773H35.3855H35.4018C36.3701 25.8669 37.1529 25.0977 37.1488 24.1516C37.1448 23.2075 36.3538 22.4442 35.3855 22.4482H22.4425C21.4803 22.4521 20.6995 23.2134 20.6955 24.1536C20.6914 25.0977 21.4742 25.8669 22.4425 25.8709Z" fill="white"/>
<path opacity="0.4" d="M43.766 34.8825C44.2456 37.064 46.1582 38.5988 48.3417 38.5589H55.7951C56.7037 38.5589 57.4406 37.8064 57.4406 36.8764V31.0705C57.4387 30.1424 56.7037 29.388 55.7951 29.386H48.1663C45.6824 29.394 43.6763 31.4557 43.6802 33.9964C43.6802 34.2938 43.7094 34.5911 43.766 34.8825Z" fill="white"/>
<path d="M48.2666 36.2663C49.5332 36.2663 50.56 35.2395 50.56 33.9729C50.56 32.7063 49.5332 31.6795 48.2666 31.6795C46.9999 31.6795 45.9731 32.7063 45.9731 33.9729C45.9731 35.2395 46.9999 36.2663 48.2666 36.2663Z" fill="white"/>
</g>
<defs>
<clipPath id="clip0_2_1639">
<rect width="47" height="42" fill="white" transform="translate(11.3335 13)"/>
</clipPath>
</defs>
</svg>
