<svg width="68" height="68" viewBox="0 0 68 68" fill="none" xmlns="http://www.w3.org/2000/svg">
<rect width="68" height="68" rx="20" fill="#0328EE"/>
<path d="M47.4789 21.3452C45.1375 18.5092 41.9779 16.4648 38.4315 15.4911C34.885 14.5174 31.1245 14.6618 27.6632 15.9048C24.2018 17.1477 21.2084 19.4285 19.0915 22.4358C16.9746 25.4432 15.8374 29.0305 15.835 32.7082V37.5874" stroke="white" stroke-opacity="0.4" stroke-width="5" stroke-linecap="round" stroke-linejoin="round"/>
<path d="M21.5142 47.9472C23.9696 50.549 27.1494 52.3537 30.6421 53.1278C34.1348 53.9018 37.7794 53.6095 41.1041 52.2888C44.4288 50.968 47.2804 48.6796 49.2898 45.7197C51.2991 42.7599 52.3737 39.2651 52.3743 35.6876V32.4392" stroke="white" stroke-opacity="0.4" stroke-width="5" stroke-linecap="round" stroke-linejoin="round"/>
<path d="M23.9235 29.5961C23.9133 29.7918 23.8487 29.9818 23.7336 30.1467L16.1642 40.8699C15.9554 41.1644 15.6117 41.3327 15.2512 41.3138C14.8907 41.2949 14.5665 41.0916 14.3896 40.7768L7.98257 29.3212C7.79687 28.9878 7.80568 28.5791 8.00903 28.2549C8.21105 27.9292 8.57263 27.7407 8.95411 27.7607L22.9305 28.4932C23.3119 28.5132 23.6518 28.7384 23.8187 29.0834C23.8985 29.2459 23.9326 29.4229 23.9235 29.5961Z" fill="white"/>
<path d="M43.8722 39.3593C43.879 39.1661 43.9395 38.9776 44.0502 38.8129L51.3335 28.1029C51.5345 27.8088 51.8707 27.6367 52.2267 27.6492C52.5827 27.6616 52.9061 27.8567 53.086 28.1641L59.6045 39.356C59.7935 39.6818 59.7918 40.0852 59.5968 40.4086C59.4031 40.7334 59.0496 40.9255 58.6729 40.9123L44.871 40.4304C44.4943 40.4172 44.1551 40.2009 43.9845 39.8634C43.903 39.7044 43.8663 39.5304 43.8722 39.3593Z" fill="white"/>
</svg>
