<svg width="68" height="68" viewBox="0 0 68 68" fill="none" xmlns="http://www.w3.org/2000/svg">
<rect width="68" height="68" rx="20" fill="#0328EE"/>
<g opacity="0.84992" clip-path="url(#clip0_2_533)">
<path opacity="0.4" d="M43.7177 13H24.3709C17.3205 13 13.326 16.9946 13.326 24.0448V43.3733C13.326 50.4237 17.3205 54.4183 24.3709 54.4183H43.7177C50.7681 54.4183 54.7442 50.4237 54.7442 43.3733V24.0448C54.7442 16.9946 50.7681 13 43.7177 13Z" fill="white"/>
<path d="M24.4439 28.2605C23.5051 28.2605 22.7319 29.0336 22.7319 29.9908V44.2203C22.7319 45.1591 23.5051 45.9322 24.4439 45.9322C25.4011 45.9322 26.1743 45.1591 26.1743 44.2203V29.9908C26.1743 29.0336 25.4011 28.2605 24.4439 28.2605Z" fill="white"/>
<path d="M34.1083 21.4677C33.1695 21.4677 32.3964 22.2408 32.3964 23.198V44.22C32.3964 45.1589 33.1695 45.9321 34.1083 45.9321C35.0655 45.9321 35.8386 45.1589 35.8386 44.22V23.198C35.8386 22.2408 35.0655 21.4677 34.1083 21.4677Z" fill="white"/>
<path d="M43.6438 35.771C42.6866 35.771 41.9134 36.5442 41.9134 37.5014V44.2203C41.9134 45.1592 42.6866 45.9323 43.6253 45.9323C44.5825 45.9323 45.3557 45.1592 45.3557 44.2203V37.5014C45.3557 36.5442 44.5825 35.771 43.6438 35.771Z" fill="white"/>
</g>
<defs>
<clipPath id="clip0_2_533">
<rect width="42" height="42" fill="white" transform="translate(13 13)"/>
</clipPath>
</defs>
</svg>
