<svg width="68" height="68" viewBox="0 0 68 68" fill="none" xmlns="http://www.w3.org/2000/svg">
<rect width="68" height="68" rx="20" fill="#0328EE"/>
<g opacity="0.84992">
<path d="M48.6973 19.5031C46.2007 16.491 42.8316 14.3197 39.05 13.2855C35.2685 12.2514 31.2586 12.4048 27.5677 13.7249C23.877 15.045 20.6851 17.4674 18.4278 20.6614C16.1705 23.8556 14.9579 27.6656 14.9554 31.5716V36.7537" stroke="white" stroke-opacity="0.4" stroke-width="4.92496" stroke-linecap="round" stroke-linejoin="round"/>
<path d="M21.0117 47.7568C23.6299 50.5201 27.0206 52.4369 30.7448 53.259C34.4691 54.0811 38.3554 53.7707 41.9005 52.368C45.4455 50.9651 48.4862 48.5346 50.6288 45.3911C52.7713 42.2475 53.9172 38.5357 53.9178 34.7361V31.286" stroke="white" stroke-opacity="0.4" stroke-width="4.92496" stroke-linecap="round" stroke-linejoin="round"/>
<path d="M23.5805 28.2664C23.5696 28.4742 23.5007 28.676 23.3779 28.8512L15.3067 40.2401C15.0841 40.5529 14.7176 40.7317 14.3332 40.7116C13.9487 40.6916 13.603 40.4755 13.4144 40.1413L6.58263 27.9744C6.38463 27.6204 6.39402 27.1863 6.61085 26.8419C6.82627 26.496 7.21182 26.2958 7.61858 26.3171L22.5215 27.095C22.9283 27.1163 23.2908 27.3554 23.4687 27.7219C23.5537 27.8945 23.5902 28.0824 23.5805 28.2664Z" fill="white"/>
<path d="M44.8516 38.6356C44.8588 38.4304 44.9233 38.2301 45.0414 38.0553L52.8076 26.6804C53.0219 26.3679 53.3804 26.1852 53.7599 26.1984C54.1396 26.2116 54.4844 26.4187 54.6762 26.7453L61.6269 38.6321C61.8284 38.9781 61.8267 39.4065 61.6186 39.75C61.4121 40.095 61.0352 40.299 60.6335 40.285L45.9167 39.7731C45.515 39.7592 45.1532 39.5294 44.9714 39.1709C44.8845 39.0021 44.8452 38.8173 44.8516 38.6356Z" fill="white"/>
</g>
</svg>
