<svg width="68" height="68" viewBox="0 0 68 68" fill="none" xmlns="http://www.w3.org/2000/svg">
<rect width="68" height="68" rx="20" fill="#0328EE"/>
<g opacity="0.84992" clip-path="url(#clip0_2_515)">
<path opacity="0.4" d="M15.7513 22.5122H39.5485C40.6494 22.5122 41.5429 23.4052 41.5429 24.5055C41.5429 25.6057 40.6494 26.4988 39.5485 26.4988H15.7513C14.6504 26.4988 13.7569 25.6057 13.7569 24.5055C13.7569 23.4052 14.6504 22.5122 15.7513 22.5122Z" fill="white"/>
<mask id="mask0_2_515" style="mask-type:alpha" maskUnits="userSpaceOnUse" x="37" y="14" width="18" height="22">
<path fill-rule="evenodd" clip-rule="evenodd" d="M37.4186 35.4653V14H54.5797V35.4653H37.4186Z" fill="white"/>
</mask>
<g mask="url(#mask0_2_515)">
<path d="M38.7655 14.1832C39.017 14.1832 39.2648 14.2532 39.4838 14.3896L53.7361 23.3658C54.1276 23.6135 54.3665 24.0425 54.3665 24.5055C54.3665 24.9686 54.1276 25.3977 53.7361 25.6453L39.4838 34.6215C39.069 34.8818 38.5446 34.898 38.1154 34.6592C37.6844 34.4223 37.4186 33.9718 37.4186 33.4818V15.5294C37.4186 15.0394 37.6844 14.5889 38.1154 14.3519C38.3183 14.2389 38.5428 14.1832 38.7655 14.1832Z" fill="white"/>
</g>
<path opacity="0.4" d="M52.3188 46.059H28.5216C27.4206 46.059 26.5272 45.1659 26.5272 44.0657C26.5272 42.9653 27.4206 42.0724 28.5216 42.0724H52.3188C53.4197 42.0724 54.3132 42.9653 54.3132 44.0657C54.3132 45.1659 53.4197 46.059 52.3188 46.059Z" fill="white"/>
<mask id="mask1_2_515" style="mask-type:alpha" maskUnits="userSpaceOnUse" x="13" y="33" width="18" height="22">
<path fill-rule="evenodd" clip-rule="evenodd" d="M30.5156 33.1058V54.5711H13.3544V33.1058H30.5156Z" fill="white"/>
</mask>
<g mask="url(#mask1_2_515)">
<path d="M29.1686 54.3878C28.9172 54.3878 28.6694 54.3178 28.4503 54.1815L14.1981 45.2053C13.8065 44.9575 13.5677 44.5286 13.5677 44.0655C13.5677 43.6025 13.8065 43.1734 14.1981 42.9258L28.4503 33.9496C28.8652 33.6893 29.3896 33.6732 29.8187 33.9118C30.2498 34.1488 30.5156 34.5993 30.5156 35.0893V53.0418C30.5156 53.5317 30.2498 53.9822 29.8187 54.2191C29.6158 54.3322 29.3913 54.3878 29.1686 54.3878Z" fill="white"/>
</g>
</g>
<defs>
<clipPath id="clip0_2_515">
<rect width="42" height="41" fill="white" transform="translate(13 14)"/>
</clipPath>
</defs>
</svg>
