<svg width="68" height="68" viewBox="0 0 68 68" fill="none" xmlns="http://www.w3.org/2000/svg">
<rect width="68" height="68" rx="20" fill="#0328EE"/>
<g opacity="0.84992" clip-path="url(#clip0_2_543)">
<path fill-rule="evenodd" clip-rule="evenodd" d="M54.0855 26.1618H45.173C41.0255 26.1691 37.6655 29.4375 37.658 33.472C37.6524 37.5156 41.0161 40.7985 45.173 40.804H54.093V41.4464C54.093 48.5 49.807 52.6709 42.5539 52.6709H23.541C16.286 52.6709 12 48.5 12 41.4464V26.0836C12 19.03 16.286 14.8754 23.541 14.8754H42.5464C49.7995 14.8754 54.0855 19.03 54.0855 26.0836V26.1618ZM21.9751 26.1454H33.8454H33.8528H33.8678C34.7565 26.1418 35.4748 25.4374 35.4711 24.5712C35.4673 23.7068 34.7414 23.008 33.8528 23.0116H21.9751C21.0921 23.0153 20.3756 23.7123 20.3719 24.5731C20.3681 25.4374 21.0865 26.1418 21.9751 26.1454Z" fill="white"/>
<path opacity="0.4" d="M41.5438 34.3961C41.984 36.3934 43.7392 37.7986 45.7431 37.7621H52.583C53.4167 37.7621 54.0931 37.0732 54.0931 36.2216V30.906C54.0912 30.0563 53.4167 29.3656 52.583 29.3638H45.582C43.3026 29.3711 41.4616 31.2587 41.4652 33.5848C41.4652 33.8572 41.492 34.1294 41.5438 34.3961Z" fill="white"/>
<path d="M45.6742 35.6629C46.8365 35.6629 47.7788 34.7228 47.7788 33.5631C47.7788 32.4035 46.8365 31.4634 45.6742 31.4634C44.5118 31.4634 43.5695 32.4035 43.5695 33.5631C43.5695 34.7228 44.5118 35.6629 45.6742 35.6629Z" fill="white"/>
</g>
<defs>
<clipPath id="clip0_2_543">
<rect width="43" height="39" fill="white" transform="translate(12 14)"/>
</clipPath>
</defs>
</svg>
