<svg width="46" height="46" viewBox="0 0 46 46" fill="none" xmlns="http://www.w3.org/2000/svg">
<rect width="46" height="46" rx="13" fill="#0328EE"/>
<g clip-path="url(#clip0_13_82)">
<path d="M23.352 39.4428C23.1511 39.4428 22.9502 39.3967 22.769 39.3029L16.9275 36.279C15.2699 35.4201 13.9733 34.4561 12.9607 33.3331C10.7447 30.8772 9.51171 27.7245 9.49211 24.4541L9.42352 13.6901C9.41536 12.4478 10.2172 11.3328 11.4159 10.9128L22.1419 7.17323C22.7788 6.94576 23.4892 6.94258 24.1375 7.16209L34.9043 10.7745C36.1095 11.1769 36.9244 12.284 36.9309 13.5247L36.9995 24.2966C37.0208 27.5622 35.8303 30.7276 33.6485 33.2107C32.6474 34.3496 31.3622 35.3278 29.7209 36.2027L23.9317 39.2949C23.7521 39.3919 23.5528 39.4412 23.352 39.4428Z" fill="white"/>
<path d="M22.1071 26.9863C21.7935 26.9879 21.48 26.8749 21.2383 26.6427L18.1289 23.6523C17.6488 23.1878 17.6439 22.4338 18.1191 21.9662C18.5944 21.4969 19.3701 21.4922 19.8518 21.955L22.0891 24.1056L27.5517 18.7196C28.0286 18.2504 28.8043 18.2456 29.2844 18.7085C29.7662 19.173 29.7711 19.9285 29.2959 20.3946L22.971 26.6316C22.7325 26.867 22.4206 26.9847 22.1071 26.9863Z" fill="#0328EE"/>
</g>
<defs>
<clipPath id="clip0_13_82">
<rect width="28" height="33" fill="white" transform="translate(9 7)"/>
</clipPath>
</defs>
</svg>
