<svg width="46" height="46" viewBox="0 0 46 46" fill="none" xmlns="http://www.w3.org/2000/svg">
<rect width="46" height="46" rx="13" fill="#0328EE"/>
<g clip-path="url(#clip0_13_109)">
<path d="M23.2423 7.88916C14.3208 7.88916 7.85608 15.1677 7.85608 23.2447C7.85608 25.8244 8.6085 28.4809 9.92907 30.9071C10.1748 31.3063 10.2055 31.813 10.0366 32.2891L9.00774 35.7287C8.77741 36.5579 9.48376 37.1721 10.2669 36.9264L13.3687 36.0051C14.2133 35.7287 14.8735 36.0819 15.6582 36.5579C17.9001 37.8785 20.6933 38.5541 23.2116 38.5541C30.8279 38.5541 38.5671 32.6729 38.5671 23.1986C38.5671 15.0295 31.9642 7.88916 23.2423 7.88916Z" fill="white"/>
<path fill-rule="evenodd" clip-rule="evenodd" d="M16.1021 25.2254C15.0272 25.2254 14.1366 24.3348 14.1366 23.2599C14.1366 22.1697 15.0119 21.2944 16.1021 21.2944C17.1923 21.2944 18.0676 22.1697 18.0676 23.2599C18.0676 24.3348 17.1923 25.21 16.1021 25.2254ZM23.1815 25.2256C22.0913 25.2103 21.216 24.335 21.216 23.2448C21.216 22.1699 22.1066 21.2793 23.1815 21.2946C24.2718 21.2946 25.147 22.1699 25.147 23.2601C25.147 24.335 24.2718 25.2256 23.1815 25.2256ZM28.2947 23.2603C28.2947 24.3352 29.1699 25.2258 30.2602 25.2258C31.3504 25.2258 32.2257 24.3352 32.2257 23.2603C32.2257 22.1701 31.3504 21.2948 30.2602 21.2948C29.1699 21.2948 28.2947 22.1701 28.2947 23.2603Z" fill="#0328EE"/>
</g>
<defs>
<clipPath id="clip0_13_109">
<rect width="32" height="32" fill="white" transform="translate(7 7)"/>
</clipPath>
</defs>
</svg>
