<svg width="46" height="46" viewBox="0 0 46 46" fill="none" xmlns="http://www.w3.org/2000/svg">
<rect width="46" height="46" rx="13" fill="#0328EE"/>
<g clip-path="url(#clip0_2_587)">
<path d="M22.5917 41.1133C32.3073 41.1133 40.1834 33.2373 40.1834 23.5216C40.1834 13.806 32.3073 5.92993 22.5917 5.92993C12.8761 5.92993 5 13.806 5 23.5216C5 33.2373 12.8761 41.1133 22.5917 41.1133Z" fill="white" fill-opacity="0.4"/>
<path d="M26.0348 12.658C26.0348 12.2125 25.4962 11.9895 25.1813 12.3044L13.711 23.7747C13.5906 23.8953 13.5086 24.0488 13.4754 24.216C13.4422 24.3831 13.4593 24.5564 13.5244 24.7138C13.5896 24.8713 13.7 25.0059 13.8417 25.1006C13.9833 25.1954 14.1499 25.246 14.3203 25.2462H18.6487C18.9248 25.2462 19.1487 25.4701 19.1487 25.7462V34.3856C19.1487 34.831 19.6872 35.0541 20.0022 34.7391L31.4725 23.2689C31.5929 23.1483 31.6749 22.9947 31.7081 22.8276C31.7413 22.6604 31.7242 22.4872 31.659 22.3297C31.5938 22.1723 31.4834 22.0377 31.3418 21.9429C31.2001 21.8482 31.0336 21.7975 30.8632 21.7974H26.5348C26.2587 21.7974 26.0348 21.5735 26.0348 21.2974V12.658Z" fill="white"/>
</g>
<defs>
<clipPath id="clip0_2_587">
<rect width="36" height="37" fill="white" transform="translate(5 5)"/>
</clipPath>
</defs>
</svg>
