<svg width="46" height="46" viewBox="0 0 46 46" fill="none" xmlns="http://www.w3.org/2000/svg">
<rect width="46" height="46" rx="13" fill="#0328EE"/>
<g clip-path="url(#clip0_13_89)">
<path opacity="0.4" d="M23.211 41.4324C21.8105 41.4324 20.4118 40.9006 19.3427 39.8389L18.0132 38.5094C17.4978 37.9958 16.8075 37.7116 16.0754 37.7098H14.205C11.1817 37.7098 8.72126 35.2493 8.72126 32.2261V30.3539C8.71944 29.6235 8.43532 28.9333 7.91991 28.4142L6.61227 27.1084C4.47049 24.9794 4.46139 21.499 6.59223 19.3554L7.92174 18.0241C8.43532 17.5087 8.71944 16.8184 8.72126 16.0863V14.2178C8.72126 11.1927 11.1817 8.7322 14.205 8.7322H16.0772C16.8075 8.7322 17.496 8.44808 18.015 7.92903L19.3245 6.62321C21.4535 4.48143 24.9321 4.47051 27.0775 6.60317L28.407 7.93268C28.9242 8.44808 29.6126 8.7322 30.343 8.7322H32.2152C35.2384 8.7322 37.6989 11.1927 37.6989 14.2178V16.0881C37.7008 16.8184 37.9849 17.5087 38.5003 18.0277L39.8079 19.3354C40.8442 20.3662 41.4179 21.7394 41.4234 23.2055C41.427 24.6625 40.8661 26.0339 39.8443 27.0702C39.8261 27.0884 39.8097 27.1084 39.7915 27.1248L38.4985 28.4179C37.9849 28.9333 37.7008 29.6235 37.6989 30.3557V32.2261C37.6989 35.2493 35.2384 37.7098 32.2152 37.7098H30.343C29.6126 37.7116 28.9224 37.9958 28.4052 38.5112L27.0957 39.8188C26.0285 40.8933 24.6188 41.4324 23.211 41.4324Z" fill="white"/>
<path d="M13.9365 28.4298C13.8777 28.4298 13.8287 28.4298 13.7896 28.4298C13.7602 28.4396 13.721 28.4445 13.672 28.4445C13.4369 28.4445 13.2508 28.3858 13.1137 28.2682C12.9863 28.1605 12.9227 28.0233 12.9227 27.8568C12.9227 27.6707 13.0304 27.4846 13.2459 27.2985C13.863 27.0144 14.392 26.6569 14.8328 26.2259C15.2736 25.7949 15.6213 25.2758 15.876 24.6684C15.6605 24.7468 15.445 24.8056 15.2295 24.8448C15.014 24.8741 14.7936 24.8888 14.5683 24.8888C14.0491 24.8888 13.5986 24.8056 13.2165 24.6391C12.8443 24.4725 12.5309 24.2619 12.2762 24.0073C12.0215 23.7428 11.8305 23.4489 11.7032 23.1257C11.5856 22.8024 11.5269 22.4841 11.5269 22.1706C11.5269 21.8082 11.6003 21.4458 11.7472 21.0834C11.8942 20.7111 12.1048 20.383 12.379 20.0989C12.6631 19.8051 13.0108 19.57 13.4222 19.3937C13.8434 19.2076 14.3283 19.1145 14.8768 19.1145C15.3862 19.1145 15.827 19.2125 16.1992 19.4084C16.5714 19.6043 16.8751 19.8639 17.1102 20.1871C17.3453 20.5005 17.5167 20.863 17.6244 21.2744C17.7322 21.6858 17.7763 22.107 17.7567 22.538C17.7567 23.1747 17.6685 23.7869 17.4922 24.3746C17.3257 24.9525 17.0759 25.4962 16.7429 26.0055C16.4196 26.5051 16.018 26.9605 15.538 27.372C15.0679 27.7834 14.534 28.136 13.9365 28.4298ZM14.5536 23.6106C14.8573 23.6106 15.1609 23.5469 15.4646 23.4195C15.778 23.2922 16.0621 23.1306 16.3168 22.9347C16.2972 22.9347 16.2923 22.8906 16.3021 22.8024C16.3217 22.7045 16.3314 22.6114 16.3314 22.5233C16.3314 22.249 16.307 21.9845 16.258 21.7299C16.209 21.4654 16.1257 21.2352 16.0082 21.0393C15.8907 20.8336 15.7339 20.672 15.538 20.5544C15.3421 20.4271 15.0972 20.3634 14.8034 20.3634C14.5585 20.3634 14.3234 20.4124 14.0981 20.5103C13.8826 20.5985 13.6867 20.7258 13.5104 20.8924C13.3439 21.0491 13.2116 21.2401 13.1137 21.4654C13.0157 21.6907 12.9668 21.9307 12.9668 22.1853C12.9668 22.4106 13.0108 22.6114 13.099 22.7878C13.1969 22.9543 13.3194 23.1012 13.4663 23.2285C13.6132 23.3559 13.7798 23.4538 13.9659 23.5224C14.1618 23.5812 14.3577 23.6106 14.5536 23.6106Z" fill="white"/>
<path d="M21.0452 28.4298C20.9865 28.4298 20.9375 28.4298 20.8983 28.4298C20.8689 28.4396 20.8297 28.4445 20.7808 28.4445C20.5457 28.4445 20.3596 28.3858 20.2224 28.2682C20.0951 28.1605 20.0314 28.0233 20.0314 27.8568C20.0314 27.6707 20.1392 27.4846 20.3547 27.2985C20.9718 27.0144 21.5007 26.6569 21.9415 26.2259C22.3823 25.7949 22.73 25.2758 22.9847 24.6684C22.7692 24.7468 22.5537 24.8056 22.3382 24.8448C22.1227 24.8741 21.9023 24.8888 21.677 24.8888C21.1579 24.8888 20.7073 24.8056 20.3253 24.6391C19.9531 24.4725 19.6396 24.2619 19.3849 24.0073C19.1303 23.7428 18.9392 23.4489 18.8119 23.1257C18.6944 22.8024 18.6356 22.4841 18.6356 22.1706C18.6356 21.8082 18.7091 21.4458 18.856 21.0834C19.0029 20.7111 19.2135 20.383 19.4878 20.0989C19.7718 19.8051 20.1196 19.57 20.531 19.3937C20.9522 19.2076 21.437 19.1145 21.9856 19.1145C22.4949 19.1145 22.9357 19.2125 23.308 19.4084C23.6802 19.6043 23.9838 19.8639 24.2189 20.1871C24.454 20.5005 24.6254 20.863 24.7332 21.2744C24.8409 21.6858 24.885 22.107 24.8654 22.538C24.8654 23.1747 24.7772 23.7869 24.6009 24.3746C24.4344 24.9525 24.1846 25.4962 23.8516 26.0055C23.5283 26.5051 23.1267 26.9605 22.6468 27.372C22.1766 27.7834 21.6428 28.136 21.0452 28.4298ZM21.6623 23.6106C21.966 23.6106 22.2696 23.5469 22.5733 23.4195C22.8868 23.2922 23.1708 23.1306 23.4255 22.9347C23.4059 22.9347 23.401 22.8906 23.4108 22.8024C23.4304 22.7045 23.4402 22.6114 23.4402 22.5233C23.4402 22.249 23.4157 21.9845 23.3667 21.7299C23.3177 21.4654 23.2345 21.2352 23.1169 21.0393C22.9994 20.8336 22.8427 20.672 22.6468 20.5544C22.4509 20.4271 22.206 20.3634 21.9121 20.3634C21.6672 20.3634 21.4322 20.4124 21.2069 20.5103C20.9914 20.5985 20.7955 20.7258 20.6191 20.8924C20.4526 21.0491 20.3204 21.2401 20.2224 21.4654C20.1245 21.6907 20.0755 21.9307 20.0755 22.1853C20.0755 22.4106 20.1196 22.6114 20.2077 22.7878C20.3057 22.9543 20.4281 23.1012 20.5751 23.2285C20.722 23.3559 20.8885 23.4538 21.0746 23.5224C21.2705 23.5812 21.4664 23.6106 21.6623 23.6106Z" fill="white"/>
<path d="M32.8393 18.1449C32.9862 18.0077 33.1723 17.9392 33.3976 17.9392C33.5837 17.9392 33.7405 17.9979 33.8678 18.1155C34.0049 18.233 34.0735 18.38 34.0735 18.5563C34.0735 18.6053 34.0686 18.6542 34.0588 18.7032C34.049 18.7424 34.0343 18.7865 34.0147 18.8354L30.8557 23.3756L27.4764 28.2095C27.3882 28.3271 27.2854 28.4055 27.1678 28.4446C27.0503 28.4838 26.9425 28.5034 26.8446 28.5034C26.6585 28.5034 26.4968 28.4495 26.3597 28.3418C26.2324 28.234 26.1687 28.0871 26.1687 27.901C26.1687 27.8324 26.1785 27.7639 26.1981 27.6953C26.2177 27.6169 26.252 27.5386 26.3009 27.4602C26.8887 26.6374 27.447 25.844 27.9759 25.0799C28.5049 24.3159 29.0338 23.5568 29.5628 22.8025C30.0819 22.0581 30.6109 21.3039 31.1496 20.5398C31.6883 19.7758 32.2467 18.9824 32.8246 18.1596L32.8393 18.1449ZM25.4487 20.2901C25.4683 19.9276 25.5467 19.6142 25.6838 19.3497C25.821 19.0852 25.9924 18.8648 26.1981 18.6885C26.4038 18.5122 26.6389 18.3849 26.9033 18.3065C27.1678 18.2183 27.4323 18.1743 27.6968 18.1743C27.971 18.1743 28.2404 18.2183 28.5049 18.3065C28.7694 18.3947 29.0044 18.5269 29.2101 18.7032C29.4256 18.8795 29.5971 19.0999 29.7244 19.3644C29.8517 19.6191 29.9154 19.9129 29.9154 20.246C29.9154 20.579 29.8468 20.8827 29.7097 21.1569C29.5824 21.4312 29.4109 21.6712 29.1954 21.8769C28.98 22.0728 28.7351 22.2246 28.4608 22.3324C28.1865 22.4401 27.9025 22.494 27.6086 22.494C27.3539 22.494 27.0993 22.445 26.8446 22.3471C26.5997 22.2491 26.3744 22.1071 26.1687 21.921C25.9728 21.7349 25.8063 21.5047 25.6691 21.2304C25.5418 20.9561 25.4683 20.6427 25.4487 20.2901ZM30.5031 26.2407C30.5227 25.8881 30.5962 25.5844 30.7235 25.3297C30.8606 25.0653 31.0321 24.8498 31.2378 24.6832C31.4435 24.5069 31.6737 24.3796 31.9283 24.3012C32.183 24.2131 32.4426 24.169 32.7071 24.169C32.9715 24.169 33.2311 24.2131 33.4858 24.3012C33.7503 24.3894 33.9853 24.5216 34.191 24.6979C34.4065 24.8645 34.578 25.0751 34.7053 25.3297C34.8326 25.5746 34.8963 25.8636 34.8963 26.1966C34.8963 26.5394 34.8326 26.848 34.7053 27.1223C34.5878 27.3965 34.4261 27.6267 34.2204 27.8128C34.0147 27.9989 33.7747 28.141 33.5005 28.2389C33.236 28.3369 32.9617 28.3859 32.6777 28.3859C32.4328 28.3859 32.1879 28.3418 31.943 28.2536C31.6981 28.1753 31.4729 28.0479 31.2672 27.8716C31.0615 27.6953 30.89 27.4749 30.7529 27.2104C30.6158 26.9362 30.5325 26.6129 30.5031 26.2407ZM27.638 19.4379C27.5205 19.4379 27.4176 19.4672 27.3294 19.526C27.2511 19.575 27.1825 19.6436 27.1237 19.7317C27.065 19.8101 27.016 19.9031 26.9768 20.0109C26.9474 20.1088 26.9229 20.2068 26.9033 20.3047C26.9327 20.6084 27.0258 20.8288 27.1825 20.9659C27.3392 21.1031 27.5156 21.1716 27.7115 21.1716C27.8976 21.1716 28.069 21.0982 28.2257 20.9512C28.3922 20.8043 28.4755 20.5839 28.4755 20.2901C28.4755 20.055 28.3873 19.8542 28.211 19.6876C28.0445 19.5211 27.8535 19.4379 27.638 19.4379ZM32.6924 25.462C32.4377 25.462 32.2565 25.5452 32.1487 25.7117C32.0508 25.8783 31.9871 26.0546 31.9577 26.2407C31.9871 26.5248 32.0753 26.7403 32.2222 26.8872C32.3691 27.0243 32.5405 27.0929 32.7364 27.0929C32.903 27.0929 33.0646 27.0243 33.2213 26.8872C33.378 26.7403 33.4564 26.5248 33.4564 26.2407C33.4564 25.9958 33.378 25.8048 33.2213 25.6677C33.0646 25.5305 32.8883 25.462 32.6924 25.462Z" fill="white"/>
</g>
<defs>
<clipPath id="clip0_13_89">
<rect width="37" height="37" fill="white" transform="translate(5 5)"/>
</clipPath>
</defs>
</svg>
