<svg width="46" height="46" viewBox="0 0 46 46" fill="none" xmlns="http://www.w3.org/2000/svg">
<rect width="46" height="46" rx="23" fill="white"/>
<g clip-path="url(#clip0_2_2174)">
<path d="M22.9338 7L22.7168 7.72455V28.7492L22.9338 28.962L32.8675 23.1932L22.9338 7Z" fill="#010725"/>
<path d="M22.9347 7L13.001 23.1932L22.9347 28.9621V18.7574V7Z" fill="#010725"/>
<path d="M22.9338 30.8097L22.8115 30.9561V38.4456L22.9338 38.7965L32.8734 25.0438L22.9338 30.8097Z" fill="#010725"/>
<path d="M22.9342 38.7965V30.8097L13.0005 25.0438L22.9342 38.7965Z" fill="#010725"/>
<path d="M22.9341 28.962L32.8676 23.1933L22.9341 18.7574V28.962Z" fill="#010D50"/>
<path d="M13.0005 23.1933L22.934 28.962V18.7574L13.0005 23.1933Z" fill="#010D50"/>
</g>
<defs>
<clipPath id="clip0_2_2174">
<rect width="20" height="32" fill="white" transform="translate(13.0005 7)"/>
</clipPath>
</defs>
</svg>
