<svg width="46" height="46" viewBox="0 0 46 46" fill="none" xmlns="http://www.w3.org/2000/svg">
<rect width="46" height="46" rx="23" fill="white"/>
<g clip-path="url(#clip0_2_2155)">
<path d="M34.4969 19.7778C34.9864 16.4379 32.4922 14.6423 29.0814 13.4446L30.1891 8.92055L27.4873 8.23435L26.4081 12.6394C25.6987 12.4592 24.9696 12.2881 24.2449 12.1204L25.328 7.6862L22.6288 7L21.5243 11.5223L16.0763 10.1464L15.3575 13.0882C15.3575 13.0882 17.3617 13.5565 17.3194 13.5857C18.4133 13.8643 18.6117 14.6021 18.5782 15.1875L15.547 27.5812C15.4131 27.92 15.0739 28.428 14.3093 28.2338C14.3364 28.2739 12.346 27.7318 12.346 27.7318L11.0049 30.8889L16.445 32.2895L15.327 36.8662L18.0249 37.5524L19.1326 33.0248C19.8711 33.2286 20.5849 33.4169 21.2846 33.5941L20.1813 38.1006L22.8826 38.7868L24.0007 34.2188C28.6071 35.1073 32.071 34.7489 33.5271 30.5042C34.7017 27.0845 33.4695 25.1117 31.0458 23.8247C32.8108 23.408 34.14 22.2249 34.4947 19.7795L34.4969 19.7778ZM28.3233 28.6022C27.4863 32.0219 21.8406 30.1739 20.0087 29.7096L21.4921 23.647C23.323 24.1128 29.1942 25.0355 28.3243 28.6017L28.3233 28.6022ZM29.1612 19.7293C28.3996 22.8416 23.6987 21.2603 22.1729 20.8723L23.516 15.3722C25.0422 15.7607 29.9533 16.484 29.1592 19.7291" fill="#010725"/>
</g>
<defs>
<clipPath id="clip0_2_2155">
<rect width="24" height="32" fill="white" transform="translate(11.0049 7)"/>
</clipPath>
</defs>
</svg>
