<svg width="46" height="46" viewBox="0 0 46 46" fill="none" xmlns="http://www.w3.org/2000/svg">
<rect width="46" height="46" rx="23" fill="white"/>
<g clip-path="url(#clip0_2_2198)">
<path d="M31.4359 30.7432H21.2315L23.1393 24.31L26.0675 23.4671L26.6887 21.3375L23.7605 22.2248L26.8661 11.6655V11.5324C26.8661 11.2218 26.6443 11 26.3337 11H22.3851C22.0745 11 21.8083 11.2218 21.7196 11.5324L18.0815 23.9995L15.1533 24.8868L14.4878 26.972L17.416 26.0847L14.7984 35.0024H30.3711C30.6817 35.0024 30.9479 34.7806 31.0366 34.5144L31.9239 31.4531V31.32C31.9683 30.965 31.7465 30.7432 31.4359 30.7432Z" fill="#010725"/>
</g>
<defs>
<clipPath id="clip0_2_2198">
<rect width="18" height="25" fill="white" transform="translate(14 11)"/>
</clipPath>
</defs>
</svg>
